<!-- Generator: Adobe Illustrator 18.1.0, SVG Export Plug-In  -->
<svg version="1.1"
	 xmlns="http://www.w3.org/2000/svg" xmlns:xlink="http://www.w3.org/1999/xlink" xmlns:a="http://ns.adobe.com/AdobeSVGViewerExtensions/3.0/"
	 x="0px" y="0px" width="668.7px" height="214.9px" viewBox="0 0 668.7 214.9" enable-background="new 0 0 668.7 214.9"
	 xml:space="preserve">
<defs>
</defs>
<rect x="506.3" y="109.5" fill="#FFFFFF" width="162.3" height="36.5"/>
<rect x="506.3" y="174.7" fill="#FFFFFF" width="162.3" height="36.5"/>
<polygon fill="#FFFFFF" points="213.5,212.2 213.5,62.8 132.5,212.2 111,212.2 30,62.8 30,212.2 0,212.2 0,0.3 29.4,0.3 
	121.6,170.6 214.1,0.3 243.5,0.3 243.5,212.2 "/>
<rect x="374.5" y="109.4" fill="#FFFFFF" width="14.6" height="103.3"/>
<rect x="480.5" y="109" fill="#FFFFFF" width="14.6" height="103.3"/>
<polygon fill="#FFFFFF" points="441.7,122.3 441.7,212.6 426.9,212.6 426.9,122.3 396.9,122.3 396.9,108.9 473.1,108.9 473.1,122.3 
	"/>
<polygon fill="#FFFFFF" points="264.3,85.5 264.3,0 335,0 335,11 276.3,11 276.3,35.6 328.3,35.6 328.3,46.5 276.3,46.5 276.3,74.5 
	335.6,74.5 335.6,85.5 "/>
<path fill="#FFFFFF" d="M421.6,74.8c-8.8,7.1-20.8,10.7-35.9,10.7h-32.4V0h37.2c14.9,0,26.2,3.9,34,11.6
	c7.6,7.5,11.4,17.9,11.4,31.3C435.9,56.6,431.1,67.2,421.6,74.8 M415.8,19.3c-5.5-5.5-14-8.3-25.5-8.3h-25v63.6H386
	c12.1,0,21.4-2.7,27.9-8c6.5-5.3,9.8-13.2,9.8-23.6C423.7,32.5,421.1,24.6,415.8,19.3"/>
<rect x="453.4" y="0" fill="#FFFFFF" width="12.1" height="85.5"/>
<path fill="#FFFFFF" d="M553.3,85.5l-57.8-66.3v66.3h-12.1V0h10.8c7.3,8.7,17,19.9,29.1,33.5c14.6,16.4,24.2,27.2,28.8,32.4V0h12.1
	v85.5H553.3z"/>
<path fill="#FFFFFF" d="M655.5,85.5l-12.2-25.2h-42.1l-12.5,25.2H575L617.9,0h9.5l41.4,85.5H655.5z M622.6,17.8l-15.9,31.5H638
	L622.6,17.8z"/>
<path fill="#FFFFFF" d="M357,141c-4.4-6-9.3-10.2-14.9-12.8c-5.5-2.5-12.4-3.8-20.7-3.8c-13.5,0-24.1,3.5-31.9,10.5
	c-7.8,7-11.7,16.5-11.7,28.3c0,11.8,3.7,21.1,11.1,28.1c7.4,7,17.7,10.5,30.9,10.5c7.9,0,14.6-1.3,20.3-3.9
	c5.6-2.6,10.9-6.9,15.8-12.9l12.3,7.3c-12.4,15-28.4,22.4-48.2,22.4c-17.2,0-30.9-4.6-41.1-13.8c-10.3-9.2-15.4-21.6-15.4-37.2
	c0-16.1,5.3-28.8,15.9-38.3c10.6-9.5,24.6-14.2,42.2-14.2c20.5,0,36.4,7.4,47.7,22.3L357,141z"/>
</svg>